<svg id="search-interface-symbol" xmlns="http://www.w3.org/2000/svg" width="16.681" height="16.681" viewBox="0 0 16.681 16.681">
  <g id="_x34__4_" transform="translate(0 0)">
    <g id="Group_1" data-name="Group 1" transform="translate(0 0)">
      <path id="Path_9" data-name="Path 9" d="M16.529,15.774l-4.307-4.238a6.812,6.812,0,0,0,1.821-4.629A6.964,6.964,0,0,0,7.024,0,6.963,6.963,0,0,0,.006,6.907a6.963,6.963,0,0,0,7.018,6.907,7.058,7.058,0,0,0,4.417-1.542l4.324,4.255a.546.546,0,0,0,.763,0A.526.526,0,0,0,16.529,15.774Zm-9.5-3.023A5.892,5.892,0,0,1,1.086,6.907,5.892,5.892,0,0,1,7.024,1.063a5.892,5.892,0,0,1,5.938,5.844A5.892,5.892,0,0,1,7.024,12.751Z" transform="translate(-0.006 0)" fill="#174778"/>
    </g>
  </g>
</svg>
