<svg xmlns="http://www.w3.org/2000/svg" width="18.139" height="18.146" viewBox="0 0 18.139 18.146">
  <g id="Group_60167" data-name="Group 60167" transform="translate(-888 -1543)">
    <g id="Group_60166" data-name="Group 60166" transform="translate(888 1543)">
      <path id="Path_11698" data-name="Path 11698" d="M65.887,271.791V279.3c-.042.207-.074.416-.127.62a4.228,4.228,0,0,1-4.1,3.2c-1.092.008-2.185,0-3.277.005a.516.516,0,0,0-.275.084c-.612.422-1.211.863-1.827,1.277-.7.474-1.412.945-2.138,1.385a1.8,1.8,0,0,1-2.74-1.324,11.258,11.258,0,0,1-.028-1.308c0-.115-.015-.17-.153-.2a4.224,4.224,0,0,1-3.468-4.15q0-3.339,0-6.678a3.43,3.43,0,0,1,.044-.634,4.181,4.181,0,0,1,3.059-3.433c.222-.069.456-.1.685-.151H62.1a.345.345,0,0,0,.079.032,4.211,4.211,0,0,1,3.584,3.161C65.81,271.39,65.845,271.591,65.887,271.791Zm-9.07-2.576v-.009q-2.382,0-4.765,0a3.039,3.039,0,0,0-3.1,3.087q0,3.215,0,6.43a4.758,4.758,0,0,0,.025.477,3,3,0,0,0,2.889,2.694.645.645,0,0,1,.721.738c0,.561,0,1.122,0,1.683a.562.562,0,0,0,.549.6.85.85,0,0,0,.459-.142q2-1.342,3.979-2.706a.907.907,0,0,1,.54-.178c1.151.006,2.3.008,3.454,0a3.462,3.462,0,0,0,.788-.091,3,3,0,0,0,2.31-3.007q.005-3.233,0-6.465a3.359,3.359,0,0,0-.034-.53,3.014,3.014,0,0,0-3.022-2.576C60.017,269.212,58.417,269.215,56.817,269.215Z" transform="translate(-47.748 -268)"/>
      <path id="Path_11699" data-name="Path 11699" d="M165.191,396.952h-3.01a.609.609,0,1,1,0-1.214q3.028,0,6.055,0a.609.609,0,1,1,0,1.214Z" transform="translate(-156.14 -389.692)"/>
      <path id="Path_11700" data-name="Path 11700" d="M165.227,446.914h3.027a.6.6,0,1,1,0,1.208h-6.09a.6.6,0,1,1,0-1.208Z" transform="translate(-156.141 -438.446)"/>
    </g>
  </g>
</svg>
