<svg id="Group_60187" data-name="Group 60187" xmlns="http://www.w3.org/2000/svg" width="20.794" height="20.703" viewBox="0 0 20.794 20.703">
  <path id="Path_11706" data-name="Path 11706" d="M257.857,96.99c-.674,0-1.322-.01-1.97.008a.859.859,0,0,0-.421.173,4.21,4.21,0,0,0-1.916,3.67,2.568,2.568,0,0,1-1.051,2.184,2.367,2.367,0,0,1-2.516.3,2.3,2.3,0,0,1-1.487-2.05c-.058-1.412-.015-2.828-.015-4.257-.506-.026-1.1-.022-1.676-.091a3.522,3.522,0,0,1-3.067-3.351q-.056-3.679,0-7.359a3.563,3.563,0,0,1,3.433-3.348q2.128-.027,4.257,0a4.148,4.148,0,0,1,2.309.72,4.4,4.4,0,0,0,2.819.8c.43-.025.862,0,1.288,0,.132-.783.24-.874,1.011-.874q2.417,0,4.834,0c.59,0,.811.216.811.8q0,6.386,0,12.771c0,.559-.232.789-.788.79q-2.453,0-4.907,0C258.107,97.865,257.954,97.73,257.857,96.99Zm.011-11.334c-.452,0-.861-.012-1.269,0a5.979,5.979,0,0,1-3.514-.973,3.492,3.492,0,0,0-1.615-.523c-1.4-.076-2.814-.073-4.218-.025a2.322,2.322,0,0,0-2.284,2.435q-.017,3.337,0,6.674a2.371,2.371,0,0,0,2.482,2.465c1.359,0,2.718,0,4.077,0,.529,0,.825.237.82.646s-.3.629-.837.631a9.4,9.4,0,0,1-1.081-.008.526.526,0,0,0-.623.446,1.5,1.5,0,0,0-.081.422c-.007,1.058-.015,2.117,0,3.175a1.273,1.273,0,0,0,1.2,1.252,1.3,1.3,0,0,0,1.334-1.117c.036-.261.03-.528.051-.791a5.356,5.356,0,0,1,2.788-4.44,1.75,1.75,0,0,1,.78-.206c.657-.029,1.315-.009,1.99-.009Zm5.341-.867h-4.021v11.78h4.021Z" transform="translate(-243.71 -82.853)" fill="#787878"/>
  <path id="Path_11708" data-name="Path 11708" d="M451.217,121.169c0,.276.015.553,0,.828a.617.617,0,0,1-1.232-.031c-.012-.54-.012-1.081,0-1.621a.617.617,0,0,1,1.232,0c.017.275,0,.552,0,.828Z" transform="translate(-433.795 -116.858)" fill="#787878"/>
</svg>
