<svg xmlns="http://www.w3.org/2000/svg" width="17.056" height="24.823" viewBox="0 0 17.056 24.823">
  <g id="Group_60192" data-name="Group 60192" transform="translate(-62.891 -225.925)">
    <path id="Path_11709" data-name="Path 11709" d="M63.423,250.748a.961.961,0,0,1-.532-.985q.012-11.448.008-22.9a1.6,1.6,0,0,1,.046-.43.722.722,0,0,1,1.4.12.288.288,0,0,1,.011.1c-.1.42.157.569.5.693a6.129,6.129,0,0,0,2.639.353,23.574,23.574,0,0,0,4.458-1.06,16.876,16.876,0,0,1,3.306-.688,7.122,7.122,0,0,1,4.3.962.841.841,0,0,1,.392.8q0,3.84,0,7.681c0,.646,0,1.292,0,1.938a.742.742,0,0,1-1.18.689A5.717,5.717,0,0,0,74.6,237.4c-1.36.29-2.7.692-4.04,1.053a13.335,13.335,0,0,1-3.829.611,7.359,7.359,0,0,1-2.366-.458v.323q0,5.439,0,10.879a.876.876,0,0,1-.559.939Zm15.044-14.542a.072.072,0,0,0,.006-.029q0-4.022,0-8.043a.289.289,0,0,0-.143-.209,5.7,5.7,0,0,0-2.893-.518,15.081,15.081,0,0,0-2.886.577c-1.361.362-2.715.754-4.089,1.056a6.977,6.977,0,0,1-3.216-.055c-.285-.072-.568-.156-.861-.237a.791.791,0,0,0-.016.105q0,4,.005,7.995a.311.311,0,0,0,.154.224,5.693,5.693,0,0,0,2.918.511,14.635,14.635,0,0,0,2.721-.539c1.408-.374,2.811-.764,4.229-1.1a6.277,6.277,0,0,1,2.359-.08C77.323,235.955,77.885,236.09,78.467,236.206Z" transform="translate(0)" fill="#787878"/>
  </g>
</svg>
