<svg id="Icon" xmlns="http://www.w3.org/2000/svg" width="8.906" height="8.905" viewBox="0 0 8.906 8.905">
  <path id="Path_4" data-name="Path 4" d="M12.149,105.037a1.319,1.319,0,1,0-.075,0Z" transform="translate(-10.792 -96.132)" fill="#fff"/>
  <path id="Path_5" data-name="Path 5" d="M15.592,62.214c0,.089-.007.171-.014.26H17.14c0-.089.014-.171.014-.26A5.542,5.542,0,0,0,11.66,56.7c-.089,0-.171.007-.26.014v1.569c.089-.007.171-.014.26-.014A3.97,3.97,0,0,1,15.592,62.214Z" transform="translate(-11.358 -53.57)" fill="#fff"/>
  <path id="Path_6" data-name="Path 6" d="M11.66,11c-.089,0-.171.014-.26.014v1.562c.089,0,.171-.014.26-.014a7.1,7.1,0,0,1,7.049,7.076c0,.089-.007.171-.014.26H20.25c0-.089.014-.171.014-.26A8.648,8.648,0,0,0,11.66,11Z" transform="translate(-11.358 -11)" fill="#fff"/>
</svg>
