<svg id="whatsapp" xmlns="http://www.w3.org/2000/svg" width="24.007" height="24.007" viewBox="0 0 24.007 24.007">
  <g id="Group_60142" data-name="Group 60142">
    <circle id="Ellipse_1649" data-name="Ellipse 1649" cx="10.5" cy="10.5" r="10.5" transform="translate(1.436 1.504)" fill="#fff"/>
    <path id="Path_11687" data-name="Path 11687" d="M12.006,0H12A12,12,0,0,0,2.285,19.039L.789,23.5,5.4,22.023A12,12,0,1,0,12.006,0Zm6.985,16.95a3.387,3.387,0,0,1-2.356,1.694c-.627.134-1.446.24-4.2-.9C8.9,16.28,6.632,12.7,6.455,12.463A6.856,6.856,0,0,1,5.029,8.842,3.832,3.832,0,0,1,6.257,5.921,1.744,1.744,0,0,1,7.484,5.49c.149,0,.282.008.4.014.353.015.53.036.762.593.29.7.995,2.42,1.079,2.6a.714.714,0,0,1,.051.65,2.074,2.074,0,0,1-.389.551c-.177.2-.345.36-.522.579-.162.191-.345.395-.141.747a10.654,10.654,0,0,0,1.948,2.42,8.825,8.825,0,0,0,2.815,1.736.759.759,0,0,0,.846-.134A14.523,14.523,0,0,0,15.273,14a.67.67,0,0,1,.861-.261c.324.113,2.039.96,2.392,1.136s.585.261.671.41A2.989,2.989,0,0,1,18.991,16.95Z" fill="#56c647"/>
  </g>
</svg>
