<svg xmlns="http://www.w3.org/2000/svg" width="26.168" height="20.255" viewBox="0 0 26.168 20.255">
  <path id="mail" d="M27.981,79.043l7.865,7.868a4.426,4.426,0,0,0,6.236,0l7.865-7.868a.179.179,0,0,0-.024-.274,4.934,4.934,0,0,0-2.829-.891H30.834A4.934,4.934,0,0,0,28,78.769.179.179,0,0,0,27.981,79.043Zm-2.1,3.791a4.917,4.917,0,0,1,.566-2.294.179.179,0,0,1,.285-.043L34.5,88.261a6.326,6.326,0,0,0,8.936,0L51.2,80.5a.179.179,0,0,1,.285.043,4.918,4.918,0,0,1,.566,2.294V93.178a4.961,4.961,0,0,1-4.955,4.955H30.834a4.961,4.961,0,0,1-4.955-4.955Z" transform="translate(-25.879 -77.878)" fill="#2891fc" fill-rule="evenodd"/>
</svg>
