<svg id="instagram" xmlns="http://www.w3.org/2000/svg" width="10.064" height="10.066" viewBox="0 0 10.064 10.066">
  <path id="Path_1" data-name="Path 1" d="M10.487,2.96a3.678,3.678,0,0,0-.234-1.221A2.579,2.579,0,0,0,8.781.266,3.688,3.688,0,0,0,7.559.032C7.021.006,6.849,0,5.483,0S3.945.006,3.408.03A3.679,3.679,0,0,0,2.187.264a2.456,2.456,0,0,0-.893.582,2.478,2.478,0,0,0-.58.891A3.688,3.688,0,0,0,.48,2.958C.454,3.5.449,3.668.449,5.034S.454,6.572.478,7.109A3.678,3.678,0,0,0,.712,8.33,2.578,2.578,0,0,0,2.185,9.8a3.688,3.688,0,0,0,1.221.234c.537.024.708.029,2.075.029s1.538-.006,2.075-.029A3.677,3.677,0,0,0,8.777,9.8,2.575,2.575,0,0,0,10.25,8.33a3.691,3.691,0,0,0,.234-1.221c.024-.537.029-.708.029-2.075s0-1.538-.026-2.075ZM9.581,7.07A2.759,2.759,0,0,1,9.408,8a1.67,1.67,0,0,1-.956.956,2.769,2.769,0,0,1-.934.173c-.531.024-.69.029-2.033.029s-1.5-.006-2.033-.029a2.758,2.758,0,0,1-.934-.173,1.549,1.549,0,0,1-.578-.376,1.565,1.565,0,0,1-.376-.578,2.769,2.769,0,0,1-.173-.934c-.024-.531-.029-.69-.029-2.033s.006-1.5.029-2.033a2.758,2.758,0,0,1,.173-.934,1.53,1.53,0,0,1,.378-.578,1.563,1.563,0,0,1,.578-.376A2.771,2.771,0,0,1,3.453.944C3.984.92,4.144.914,5.487.914S6.991.92,7.52.944a2.759,2.759,0,0,1,.934.173,1.548,1.548,0,0,1,.578.376,1.565,1.565,0,0,1,.376.578A2.77,2.77,0,0,1,9.581,3c.024.531.029.69.029,2.033S9.6,6.539,9.581,7.07Zm0,0" transform="translate(-0.449 0)" fill="#fff"/>
  <path id="Path_2" data-name="Path 2" d="M127.535,124.5a2.586,2.586,0,1,0,2.586,2.586A2.587,2.587,0,0,0,127.535,124.5Zm0,4.263a1.677,1.677,0,1,1,1.677-1.677A1.678,1.678,0,0,1,127.535,128.763Zm0,0" transform="translate(-122.501 -122.052)" fill="#fff"/>
  <path id="Path_3" data-name="Path 3" d="M363.657,89.205a.6.6,0,1,1-.6-.6A.6.6,0,0,1,363.657,89.205Zm0,0" transform="translate(-355.331 -86.859)" fill="#fff"/>
</svg>
