<svg id="Group_60188" data-name="Group 60188" xmlns="http://www.w3.org/2000/svg" width="20.809" height="20.695" viewBox="0 0 20.809 20.695">
  <path id="Path_11705" data-name="Path 11705" d="M71.374,310.821a9.717,9.717,0,0,1-2.623-1.125,4.408,4.408,0,0,0-1.589-.381,17.715,17.715,0,0,0-1.826-.014,2.215,2.215,0,0,1-.04.4.588.588,0,0,1-.6.476q-2.67,0-5.34,0a.587.587,0,0,1-.63-.6c-.01-.107-.008-.216-.008-.324q0-6.242,0-12.484c0-.789.16-.948.949-.948h4.763c.678,0,.84.15.9.871.689,0,1.383.007,2.076-.007a.674.674,0,0,0,.318-.153,4.176,4.176,0,0,0,1.926-3.625,2.613,2.613,0,0,1,1.189-2.334,2.371,2.371,0,0,1,2.53-.143,2.4,2.4,0,0,1,1.375,2.137c.041,1.117.016,2.237,0,3.355a6.248,6.248,0,0,1-.123.817,13.642,13.642,0,0,1,1.667.01,3.58,3.58,0,0,1,3.211,3.573q.044,3.445,0,6.891a3.61,3.61,0,0,1-2.923,3.543.851.851,0,0,0-.158.07Zm-6.047-2.8c.433,0,.84.013,1.245,0a5.992,5.992,0,0,1,3.582.987,3.381,3.381,0,0,0,1.584.508c1.391.075,2.789.073,4.182.029a2.312,2.312,0,0,0,2.317-2.466q.006-3.319,0-6.638a2.349,2.349,0,0,0-2.5-2.474c-1.383,0-2.766,0-4.149,0a.64.64,0,0,1-.72-.634c0-.381.271-.63.716-.639.361-.008.722,0,1.082,0,.574,0,.786-.162.8-.744.026-1.142.034-2.285,0-3.426a1.23,1.23,0,0,0-1.6-1.06c-.638.2-.916.663-.941,1.483a5.425,5.425,0,0,1-2.836,4.823,1.672,1.672,0,0,1-.747.194c-.668.026-1.337.009-2.019.009ZM60,297.105V308.89H64.03V297.105Z" transform="translate(-58.72 -290.126)" fill="#787878"/>
  <path id="Path_11707" data-name="Path 11707" d="M101.4,482.649c0-.264-.009-.529,0-.793a.611.611,0,0,1,.575-.622.581.581,0,0,1,.671.552,14.578,14.578,0,0,1,0,1.727.577.577,0,0,1-.649.537.615.615,0,0,1-.591-.608C101.385,483.178,101.4,482.913,101.4,482.649Z" transform="translate(-98.045 -466.243)" fill="#787878"/>
</svg>
