<svg xmlns="http://www.w3.org/2000/svg" width="140.445" height="116.079" viewBox="0 0 140.445 116.079">
  <g id="_x35_8" transform="translate(-5 -10.638)">
    <path id="Path_16399" data-name="Path 16399" d="M15.6,115.868l88.441,10.761a12.127,12.127,0,0,0,13.449-10.557l5.793-47.7c24.621-6.213,30.422-38.591,8.764-53.03A29.3,29.3,0,0,0,87.884,32.24l-61.22-7.45A12.025,12.025,0,0,0,13.253,35.325l-8.168,67.1A12.035,12.035,0,0,0,15.6,115.868ZM130.722,17.039c.263.29,12.563,7.178,12.563,22.915a27.152,27.152,0,1,1-54.3,0c0-21.209,23.5-34.455,41.741-22.915ZM112.773,69.082l-5.139,42.386a5.134,5.134,0,0,1-5.691,4.461L20.2,105.988a5.083,5.083,0,0,1-4.437-5.646l6.417-52.874a5.127,5.127,0,0,1,5.689-4.459L88.75,50.387a29.273,29.273,0,0,0,24.023,18.695ZM7.231,102.676,15.4,35.587A9.874,9.874,0,0,1,26.4,26.933l60.968,7.42A28.875,28.875,0,0,0,88,48.12L28.133,40.866a7.28,7.28,0,0,0-8.094,6.343L13.623,100.08a7.238,7.238,0,0,0,6.32,8.052l81.741,9.94a7.284,7.284,0,0,0,8.094-6.343l5.153-42.5a24.578,24.578,0,0,0,6.12-.384l-5.7,46.963a9.974,9.974,0,0,1-11.048,8.674L15.857,113.724a9.878,9.878,0,0,1-8.626-11.048Z" transform="translate(0)" fill="#2991fc"/>
    <path id="Path_16400" data-name="Path 16400" d="M28.643,25.364a3.763,3.763,0,1,0-7.27-.176,3.765,3.765,0,0,0,7.27.176Z" transform="translate(18.868 11.495)" fill="#2991fc"/>
    <path id="Path_16401" data-name="Path 16401" d="M18.7,27.288a3.763,3.763,0,0,0,4.076-5.859,3.657,3.657,0,0,0-1.94-1.372A3.77,3.77,0,0,0,18.7,27.288Z" transform="translate(12.746 10.748)" fill="#2991fc"/>
    <path id="Path_16402" data-name="Path 16402" d="M33.928,26a3.773,3.773,0,1,0-7.29-.157A3.794,3.794,0,0,0,33.928,26Z" transform="translate(24.988 12.233)" fill="#2991fc"/>
    <path id="Path_16403" data-name="Path 16403" d="M31.388,52.658c44.865,5.441,41.4,5.054,41.817,5.054a3.747,3.747,0,0,0,3.714-3.292l.15-1.228A3.73,3.73,0,0,0,73.8,49.033L32.439,44.007a3.735,3.735,0,0,0-4.165,3.256l-.15,1.23a3.748,3.748,0,0,0,3.264,4.165Zm-1.12-3.906.15-1.23a1.579,1.579,0,0,1,1.76-1.372C76.141,51.524,73.589,51.1,74.04,51.325a1.566,1.566,0,0,1,.884,1.606l-.15,1.228a1.58,1.58,0,0,1-1.762,1.382L31.649,50.514a1.6,1.6,0,0,1-1.382-1.762Z" transform="translate(26.807 38.699)" fill="#2991fc"/>
    <path id="Path_16404" data-name="Path 16404" d="M30.61,59.063l22.012,2.673a3.741,3.741,0,0,0,4.167-3.262l.15-1.228a3.734,3.734,0,0,0-3.264-4.169L31.665,50.4A3.747,3.747,0,0,0,27.5,53.667l-.15,1.23a3.752,3.752,0,0,0,3.264,4.165Zm-.971-5.134a1.59,1.59,0,0,1,1.574-1.393c.218,0-1.042-.134,22.2,2.684a1.582,1.582,0,0,1,1.384,1.764l-.15,1.228a1.585,1.585,0,0,1-1.762,1.38L30.871,56.919a1.585,1.585,0,0,1-1.384-1.477,9.171,9.171,0,0,1,.152-1.513Z" transform="translate(25.904 46.124)" fill="#2991fc"/>
    <path id="Path_16405" data-name="Path 16405" d="M32.165,46.259l41.363,5.026A3.751,3.751,0,0,0,77.7,48.021l.148-1.222a3.731,3.731,0,0,0-3.264-4.165L33.218,37.608a3.735,3.735,0,0,0-4.169,3.264L28.9,42.094A3.748,3.748,0,0,0,32.165,46.259Zm-.973-5.125a1.59,1.59,0,0,1,1.574-1.393c.217,0-1.376-.175,41.551,5.037A1.58,1.58,0,0,1,75.7,46.54l-.148,1.22a1.619,1.619,0,0,1-1.764,1.382L32.427,44.116a1.581,1.581,0,0,1-1.384-1.477,9.28,9.28,0,0,1,.15-1.5Z" transform="translate(27.71 31.269)" fill="#2991fc"/>
    <path id="Path_16406" data-name="Path 16406" d="M20.2,40.04a5.163,5.163,0,0,0,5.119-4.526v0A5.16,5.16,0,1,0,20.2,40.04Zm.354-8.138.321.055a3.011,3.011,0,1,1-.321-.055Z" transform="translate(11.652 22.15)" fill="#2991fc"/>
    <path id="Path_16407" data-name="Path 16407" d="M27.054,62.771a3.488,3.488,0,0,0,2.27-4.357.008.008,0,0,1,0-.006c-2.578-8.232-.7-18.211,2.979-24.443a3.482,3.482,0,0,0-5.971-3.583c-.352.587-8.548,14.555-3.646,30.121a3.478,3.478,0,0,0,4.37,2.268Zm1.129-31.277A1.338,1.338,0,0,1,30,31.047a1.322,1.322,0,0,1,.445,1.815c-4.067,6.926-5.911,17.478-3.186,26.188a1.32,1.32,0,1,1-2.515.8C20.131,45.2,27.852,32.045,28.183,31.494Z" transform="translate(18.717 20.962)" fill="#2991fc"/>
    <path id="Path_16408" data-name="Path 16408" d="M19.947,36.961a5.16,5.16,0,1,0,4.5,5.746,5.158,5.158,0,0,0-4.5-5.746Zm-2.294,7.607A3,3,0,1,1,22.3,42.445a2.977,2.977,0,0,1-4.648,2.123Z" transform="translate(10.636 30.51)" fill="#2991fc"/>
    <path id="Path_16409" data-name="Path 16409" d="M59.067,16.371a17.274,17.274,0,0,0-8.092,4.108L76.107,45.613c11.24-12.684-.1-32.837-17.04-29.243Z" transform="translate(53.363 6.163)" fill="#2991fc"/>
    <path id="Path_16410" data-name="Path 16410" d="M77.819,43.887,52.684,18.75a17.64,17.64,0,0,0-4.5,11.785c-.013,15.226,18.036,23.576,29.637,13.352Z" transform="translate(50.121 9.415)" fill="#2991fc"/>
  </g>
</svg>
