<svg xmlns="http://www.w3.org/2000/svg" width="11.79" height="11.791" viewBox="0 0 11.79 11.791">
  <g id="search-interface-symbol" transform="translate(-0.006)">
    <g id="_x34__4_" transform="translate(0.006)">
      <g id="Group_1" data-name="Group 1" transform="translate(0)">
        <path id="Path_9" data-name="Path 9" d="M11.685,11.149l-3.044-3A4.815,4.815,0,0,0,9.928,4.882,4.922,4.922,0,0,0,4.967,0,4.921,4.921,0,0,0,.006,4.882,4.921,4.921,0,0,0,4.967,9.763a4.989,4.989,0,0,0,3.122-1.09l3.056,3.007a.386.386,0,0,0,.54,0A.372.372,0,0,0,11.685,11.149ZM4.967,9.012a4.164,4.164,0,0,1-4.2-4.131A4.164,4.164,0,0,1,4.967.751a4.164,4.164,0,0,1,4.2,4.131A4.164,4.164,0,0,1,4.967,9.012Z" transform="translate(-0.006 0)" fill="#174778"/>
      </g>
    </g>
  </g>
</svg>
