<svg xmlns="http://www.w3.org/2000/svg" width="17.77" height="20.2" viewBox="0 0 17.77 20.2">
  <g id="Group_60176" data-name="Group 60176" transform="translate(-22.632 -154.9)">
    <path id="Path_11701" data-name="Path 11701" d="M37.411,155c.156.038.313.073.468.116a3.27,3.27,0,0,1-.247,6.37,3.185,3.185,0,0,1-2.918-.886c-.088-.084-.146-.109-.26-.038q-2.566,1.6-5.138,3.185c-.033.02-.064.043-.105.071a3.29,3.29,0,0,1,0,2.368l2.113,1.309c1.039.643,2.079,1.285,3.115,1.933a.186.186,0,0,0,.277-.027,3.276,3.276,0,0,1,5.532,1.8,3.278,3.278,0,0,1-2.71,3.758.813.813,0,0,0-.126.04H36.63a8.037,8.037,0,0,1-.98-.3,3.241,3.241,0,0,1-1.754-3.955.227.227,0,0,0-.124-.319q-2.542-1.565-5.076-3.141c-.033-.02-.067-.039-.115-.067a3.272,3.272,0,0,1-2.97,1.018,3.144,3.144,0,0,1-2.007-1.177,3.261,3.261,0,0,1,.276-4.411,3.3,3.3,0,0,1,4.706.143c.245-.15.494-.3.741-.456q2.239-1.387,4.479-2.771a.185.185,0,0,0,.1-.261,3.266,3.266,0,0,1,2.635-4.264.485.485,0,0,0,.09-.034ZM24.082,165a2.075,2.075,0,1,0,2.089-2.07A2.066,2.066,0,0,0,24.082,165ZM37.027,156.2a2.074,2.074,0,1,0-.017,4.149,2.074,2.074,0,0,0,.017-4.149ZM37,173.8a2.074,2.074,0,1,0-2.062-2.075A2.075,2.075,0,0,0,37,173.8Z" transform="translate(0)" stroke="#000" stroke-width="0.2"/>
  </g>
</svg>
