<svg xmlns="http://www.w3.org/2000/svg" width="17.247" height="4.319" viewBox="0 0 17.247 4.319">
  <g id="Group_60194" data-name="Group 60194" transform="translate(-669 -4565)">
    <g id="Group_60193" data-name="Group 60193" transform="translate(576 4189.796)">
      <path id="Path_11710" data-name="Path 11710" d="M385,377.573c-.034.163-.058.329-.1.489a2.149,2.149,0,1,1,.058-.985c.017.087.03.174.046.261Z" transform="translate(-274.749 -0.092)" fill="#787878"/>
      <path id="Path_11711" data-name="Path 11711" d="M93,376.942a6.1,6.1,0,0,1,.32-.728,2.139,2.139,0,0,1,2.216-.971,2.156,2.156,0,1,1-2.478,2.69c-.015-.051-.039-.1-.058-.15Z" fill="#787878"/>
      <path id="Path_11712" data-name="Path 11712" d="M240.807,377.394a2.162,2.162,0,1,1-2.166-2.158A2.171,2.171,0,0,1,240.807,377.394Z" transform="translate(-137.039 -0.031)" fill="#787878"/>
    </g>
  </g>
</svg>
